<?xml version="1.0" encoding="UTF-8" standalone="no" ?>
<!DOCTYPE svg PUBLIC "-//W3C//DTD SVG 1.1//EN" "http://www.w3.org/Graphics/SVG/1.1/DTD/svg11.dtd">
<svg xmlns="http://www.w3.org/2000/svg" xmlns:xlink="http://www.w3.org/1999/xlink" version="1.1" width="1080" height="1080" viewBox="0 0 1080 1080" xml:space="preserve">
<desc>Created with Fabric.js 4.2.0</desc>
<defs>
</defs>
<rect x="0" y="0" width="100%" height="100%" fill="transparent"></rect>
<g transform="matrix(1 0 0 1 540 540)" id="a12257cc-3362-4a50-b80c-b77e69a2e1d3"  >
<rect style="stroke: none; stroke-width: 1; stroke-dasharray: none; stroke-linecap: butt; stroke-dashoffset: 0; stroke-linejoin: miter; stroke-miterlimit: 4; fill: rgb(255,255,255); fill-rule: nonzero; opacity: 1; visibility: hidden;" vector-effect="non-scaling-stroke"  x="-540" y="-540" rx="0" ry="0" width="1080" height="1080" />
</g>
<g transform="matrix(Infinity NaN NaN Infinity 0 0)" id="98a2ff8f-a41f-439e-b7c3-36c9ed72aef5"  >
</g>
<g transform="matrix(2.65 0 0 2.65 540 540)" id="c2a41646-11a4-4032-9ae7-959b12f30b64"  >
<path style="stroke: rgb(0,0,0); stroke-width: 0; stroke-dasharray: none; stroke-linecap: butt; stroke-dashoffset: 0; stroke-linejoin: miter; stroke-miterlimit: 4; fill: rgb(158,158,158); fill-rule: nonzero; opacity: 1;" vector-effect="non-scaling-stroke"  transform=" translate(-199.51, -199.51)" d="M 380.703 107.713 C 380.703 99.12899999999999 377.35999999999996 91.05799999999999 371.291 84.988 C 366.35 80.048 360.085 76.91499999999999 353.296 75.919 L 353.716 75.499 C 366.245 62.968999999999994 366.245 42.580999999999996 353.716 30.049999999999997 C 342.03700000000003 18.369999999999997 323.533 17.581999999999997 310.925 27.676 C 309.995 20.991999999999997 306.969 14.546999999999999 301.841 9.418 C 295.77500000000003 3.352999999999999 287.707 0.007999999999999119 279.117 0 C 270.53000000000003 0 262.459 3.343 256.38800000000003 9.413 L 165.29300000000003 100.508 C 164.54100000000003 92.1 160.91000000000003 84.29299999999999 154.86900000000003 78.252 C 144.73000000000002 68.11399999999999 128.235 68.11399999999999 118.09800000000003 78.252 L 58.409 137.94 C 47.521 148.828 37.467 174.656 28.526999999999997 214.70499999999998 C 22.009999999999998 243.897 18.416999999999998 270.49 18.380999999999997 270.755 C 18.112 272.763 18.794999999999998 274.782 20.226999999999997 276.214 L 141.136 397.123 C 142.405 398.392 144.069 399.027 145.732 399.027 C 147.395 399.027 149.059 398.392 150.328 397.12399999999997 L 152.971 394.48199999999997 C 162.626 384.827 173.594 376.606 185.57 370.046 C 198.629 362.894 210.589 353.93 221.117 343.401 L 347.355 217.163 C 352.77700000000004 211.741 355.76300000000003 204.53500000000003 355.76300000000003 196.864 C 355.75500000000005 189.02700000000002 352.65400000000005 181.709 347.03000000000003 176.258 C 343.00000000000006 172.351 338.05300000000005 169.9 332.85200000000003 168.877 L 371.29100000000005 130.43800000000002 C 377.361 124.367 380.703 116.297 380.703 107.713 z M 362.098 121.245 L 254.025 229.318 C 251.48600000000002 231.857 251.48600000000002 235.972 254.025 238.51000000000002 C 255.294 239.78000000000003 256.957 240.41400000000002 258.621 240.41400000000002 C 260.284 240.41400000000002 261.948 239.77900000000002 263.217 238.51000000000002 L 315.609 186.122 C 321.83099999999996 179.90200000000002 331.86699999999996 179.66400000000002 337.983 185.591 C 341.062 188.57500000000002 342.76 192.583 342.764 196.869 C 342.764 201.061 341.13 205.003 338.163 207.97 L 211.924 334.209 C 202.269 343.864 191.30100000000002 352.085 179.32500000000002 358.644 C 167.074 365.354 155.79100000000003 373.659 145.75 383.352 L 31.705 269.307 C 36.083999999999996 238.491 49.748999999999995 164.985 67.601 147.132 L 127.289 87.444 C 132.358 82.375 140.606 82.375 145.676 87.444 C 150.041 91.809 152.445 97.612 152.445 103.784 C 152.445 109.95600000000002 150.042 115.75800000000001 145.678 120.123 L 96.315 169.486 C 93.776 172.02499999999998 93.776 176.14 96.315 178.678 C 97.584 179.947 99.24799999999999 180.582 100.911 180.582 C 102.574 180.582 104.238 179.947 105.507 178.678 L 154.868 129.317 C 154.868 129.317 154.869 129.316 154.869 129.315 L 265.579 18.605000000000004 C 269.194 14.990000000000004 274.002 12.999000000000004 279.11 12.999000000000004 C 284.225 13.004000000000005 289.033 14.997000000000003 292.646 18.611000000000004 C 300.093 26.058000000000003 300.10400000000004 38.164 292.687 45.628 L 198.56300000000002 139.753 C 196.02400000000003 142.29199999999997 196.02400000000003 146.40699999999998 198.56300000000002 148.945 C 200.151 150.53199999999998 202.35500000000002 151.12699999999998 204.40500000000003 150.72899999999998 C 205.63400000000004 150.49099999999999 206.80800000000002 149.896 207.75900000000004 148.944 L 317.458 39.243999999999986 C 324.92 31.781999999999986 337.062 31.782999999999987 344.52200000000005 39.243999999999986 C 351.98400000000004 46.704999999999984 351.98400000000004 58.84599999999999 344.52200000000005 66.30799999999999 L 227.186 183.644 C 224.648 186.183 224.648 190.298 227.186 192.836 C 229.72400000000002 195.37400000000002 233.839 195.375 236.37900000000002 192.836 L 335.035 94.18 C 338.649 90.56500000000001 343.45500000000004 88.575 348.56600000000003 88.575 C 353.677 88.575 358.483 90.566 362.09700000000004 94.18 C 365.71200000000005 97.79400000000001 367.70200000000006 102.60000000000001 367.70200000000006 107.712 C 367.703 112.824 365.713 117.63 362.098 121.245 z" stroke-linecap="round" />
</g>
</svg>