<?xml version="1.0" encoding="UTF-8" standalone="no" ?>
<!DOCTYPE svg PUBLIC "-//W3C//DTD SVG 1.1//EN" "http://www.w3.org/Graphics/SVG/1.1/DTD/svg11.dtd">
<svg xmlns="http://www.w3.org/2000/svg" xmlns:xlink="http://www.w3.org/1999/xlink" version="1.1" width="1080" height="1080" viewBox="0 0 1080 1080" xml:space="preserve">
<desc>Created with Fabric.js 4.2.0</desc>
<defs>
</defs>
<g transform="matrix(0 0 0 0 0 0)" id="cb0a3904-cafb-4e94-876e-783b3beb24df"  >
</g>
<g transform="matrix(1 0 0 1 540 540)" id="65ad2e75-7e59-4985-af12-2eff045b981c"  >
<rect style="stroke: none; stroke-width: 1; stroke-dasharray: none; stroke-linecap: butt; stroke-dashoffset: 0; stroke-linejoin: miter; stroke-miterlimit: 4; fill: rgb(255,255,255); fill-rule: nonzero; opacity: 1; visibility: hidden;" vector-effect="non-scaling-stroke"  x="-540" y="-540" rx="0" ry="0" width="1080" height="1080" />
</g>
<g transform="matrix(2.63 0 0 2.63 540.4 540.43)"  >
<g style="" vector-effect="non-scaling-stroke"   >
		<g transform="matrix(1 0 0 1 -0.54 -119.35)"  >
<path style="stroke: none; stroke-width: 1; stroke-dasharray: none; stroke-linecap: butt; stroke-dashoffset: 0; stroke-linejoin: miter; stroke-miterlimit: 4; fill: rgb(119,184,232); fill-rule: nonzero; opacity: 1;" vector-effect="non-scaling-stroke"  transform=" translate(-195.53, -76.73)" d="M 298.526 153.455 C 284.591 153.455 273.295 142.15900000000002 273.295 128.22400000000002 C 273.295 85.34600000000002 238.411 50.46300000000002 195.53300000000002 50.46300000000002 C 152.656 50.46300000000002 117.77300000000001 85.34600000000003 117.77300000000001 128.22400000000002 C 117.77300000000001 142.16000000000003 106.47600000000001 153.455 92.542 153.455 C 78.606 153.455 67.311 142.15900000000002 67.311 128.22400000000002 C 67.311 57.521 124.831 0 195.533 0 C 266.23699999999997 0 323.758 57.521 323.758 128.224 C 323.758 142.159 312.462 153.455 298.526 153.455 z" stroke-linecap="round" />
</g>
		<g transform="matrix(1 0 0 1 32.17 -106.42)"  >
<path style="stroke: none; stroke-width: 1; stroke-dasharray: none; stroke-linecap: butt; stroke-dashoffset: 0; stroke-linejoin: miter; stroke-miterlimit: 4; fill: rgb(0,155,222); fill-rule: nonzero; opacity: 1;" vector-effect="non-scaling-stroke"  transform=" translate(-228.24, -89.66)" d="M 293.493 45.588 C 275.445 33.15 253.59199999999998 25.857 230.062 25.857 C 188.44400000000002 25.857 152.05200000000002 48.664 132.726 82.434 C 146.882 63.069 169.762 50.462999999999994 195.53300000000002 50.462999999999994 C 238.411 50.462999999999994 273.295 85.346 273.295 128.224 C 273.295 142.16 284.59200000000004 153.45499999999998 298.526 153.45499999999998 C 312.462 153.45499999999998 323.757 142.159 323.757 128.224 C 323.758 96.765 312.362 67.922 293.493 45.588 z" stroke-linecap="round" />
</g>
		<g transform="matrix(1 0 0 1 99.6 27.98)"  >
<path style="stroke: none; stroke-width: 1; stroke-dasharray: none; stroke-linecap: butt; stroke-dashoffset: 0; stroke-linejoin: miter; stroke-miterlimit: 4; fill: rgb(51,62,72); fill-rule: nonzero; opacity: 1;" vector-effect="non-scaling-stroke"  transform=" translate(-295.67, -224.06)" d="M 282.882 128.224 C 245.132 128.224 214.52800000000002 158.827 214.52800000000002 196.579 L 214.52800000000002 251.536 C 214.52800000000002 289.288 245.132 319.891 282.882 319.891 L 308.464 319.891 C 346.216 319.891 376.819 289.28700000000003 376.819 251.536 L 376.819 196.579 C 376.819 158.827 346.21500000000003 128.224 308.464 128.224 L 282.882 128.224 z" stroke-linecap="round" />
</g>
		<g transform="matrix(1 0 0 1 86.81 27.98)"  >
<path style="stroke: none; stroke-width: 1; stroke-dasharray: none; stroke-linecap: butt; stroke-dashoffset: 0; stroke-linejoin: miter; stroke-miterlimit: 4; fill: rgb(62,74,87); fill-rule: nonzero; opacity: 1;" vector-effect="non-scaling-stroke"  transform=" translate(-282.88, -224.06)" d="M 351.239 251.535 C 351.239 289.287 320.63399999999996 319.89 282.88199999999995 319.89 C 245.13199999999995 319.89 214.52799999999996 289.286 214.52799999999996 251.53499999999997 L 214.52799999999996 196.57799999999997 C 214.52799999999996 158.82599999999996 245.13199999999995 128.22299999999996 282.88199999999995 128.22299999999996 C 320.63399999999996 128.22299999999996 351.2389999999999 158.82599999999996 351.2389999999999 196.57799999999997 L 351.2389999999999 251.535 z" stroke-linecap="round" />
</g>
		<g transform="matrix(1 0 0 1 83.56 27.98)"  >
<path style="stroke: none; stroke-width: 1; stroke-dasharray: none; stroke-linecap: butt; stroke-dashoffset: 0; stroke-linejoin: miter; stroke-miterlimit: 4; fill: rgb(51,62,72); fill-rule: nonzero; opacity: 1;" vector-effect="non-scaling-stroke"  transform=" translate(-279.64, -224.06)" d="M 328.809 243.823 C 328.809 270.98 306.79400000000004 292.995 279.636 292.995 C 252.479 292.995 230.46500000000003 270.98 230.46500000000003 243.823 L 230.46500000000003 204.29 C 230.46500000000003 177.134 252.47900000000004 155.12 279.636 155.12 C 306.79400000000004 155.12 328.809 177.13400000000001 328.809 204.29000000000002 L 328.809 243.823 z" stroke-linecap="round" />
</g>
		<g transform="matrix(1 0 0 1 -99.59 27.98)"  >
<path style="stroke: none; stroke-width: 1; stroke-dasharray: none; stroke-linecap: butt; stroke-dashoffset: 0; stroke-linejoin: miter; stroke-miterlimit: 4; fill: rgb(51,62,72); fill-rule: nonzero; opacity: 1;" vector-effect="non-scaling-stroke"  transform=" translate(-96.48, -224.06)" d="M 83.687 128.224 C 45.937 128.224 15.332999999999998 158.827 15.332999999999998 196.579 L 15.332999999999998 251.536 C 15.332999999999998 289.288 45.937 319.891 83.687 319.891 L 109.27 319.891 C 147.021 319.891 177.625 289.28700000000003 177.625 251.536 L 177.625 196.579 C 177.625 158.827 147.02 128.224 109.27 128.224 L 83.687 128.224 z" stroke-linecap="round" />
</g>
		<g transform="matrix(1 0 0 1 -112.38 27.98)"  >
<path style="stroke: none; stroke-width: 1; stroke-dasharray: none; stroke-linecap: butt; stroke-dashoffset: 0; stroke-linejoin: miter; stroke-miterlimit: 4; fill: rgb(62,74,87); fill-rule: nonzero; opacity: 1;" vector-effect="non-scaling-stroke"  transform=" translate(-83.69, -224.06)" d="M 152.044 251.535 C 152.044 289.287 121.43800000000002 319.89 83.68700000000001 319.89 C 45.93700000000001 319.89 15.333000000000013 289.286 15.333000000000013 251.53499999999997 L 15.333000000000013 196.57799999999997 C 15.333000000000013 158.82599999999996 45.93700000000001 128.22299999999996 83.68700000000001 128.22299999999996 C 121.43900000000002 128.22299999999996 152.044 158.82599999999996 152.044 196.57799999999997 L 152.044 251.535 z" stroke-linecap="round" />
</g>
		<g transform="matrix(1 0 0 1 -115.64 27.98)"  >
<path style="stroke: none; stroke-width: 1; stroke-dasharray: none; stroke-linecap: butt; stroke-dashoffset: 0; stroke-linejoin: miter; stroke-miterlimit: 4; fill: rgb(0,155,222); fill-rule: nonzero; opacity: 1;" vector-effect="non-scaling-stroke"  transform=" translate(-80.44, -224.06)" d="M 129.614 243.823 C 129.614 270.98 107.59800000000001 292.995 80.441 292.995 C 53.283 292.995 31.270000000000003 270.98 31.270000000000003 243.823 L 31.270000000000003 204.29 C 31.270000000000003 177.134 53.283 155.12 80.441 155.12 C 107.598 155.12 129.614 177.13400000000001 129.614 204.29000000000002 L 129.614 243.823 z" stroke-linecap="round" />
</g>
		<g transform="matrix(1 0 0 1 -115.64 27.98)"  >
<circle style="stroke: none; stroke-width: 1; stroke-dasharray: none; stroke-linecap: butt; stroke-dashoffset: 0; stroke-linejoin: miter; stroke-miterlimit: 4; fill: rgb(255,255,255); fill-rule: nonzero; opacity: 1;" vector-effect="non-scaling-stroke"  cx="0" cy="0" r="29.713" />
</g>
		<g transform="matrix(1 0 0 1 -58.09 144.28)"  >
<path style="stroke: none; stroke-width: 1; stroke-dasharray: none; stroke-linecap: butt; stroke-dashoffset: 0; stroke-linejoin: miter; stroke-miterlimit: 4; fill: rgb(119,184,232); fill-rule: nonzero; opacity: 1;" vector-effect="non-scaling-stroke"  transform=" translate(-137.99, -340.36)" d="M 137.988 392.152 C 103.815 392.152 76.01400000000001 364.351 76.01400000000001 330.179 L 76.01400000000001 292.99399999999997 C 76.01400000000001 290.549 77.995 288.56699999999995 80.441 288.56699999999995 C 82.885 288.56699999999995 84.867 290.54799999999994 84.867 292.99399999999997 L 84.867 330.179 C 84.867 359.469 108.696 383.299 137.988 383.299 C 167.277 383.299 191.108 359.469 191.108 330.179 C 191.108 327.734 193.09 325.75199999999995 195.535 325.75199999999995 C 197.97899999999998 325.75199999999995 199.962 327.73299999999995 199.962 330.179 C 199.962 364.352 172.16 392.152 137.988 392.152 z" stroke-linecap="round" />
</g>
		<g transform="matrix(1 0 0 1 -0.54 117.84)"  >
<rect style="stroke: none; stroke-width: 1; stroke-dasharray: none; stroke-linecap: butt; stroke-dashoffset: 0; stroke-linejoin: miter; stroke-miterlimit: 4; fill: rgb(51,62,72); fill-rule: nonzero; opacity: 1;" vector-effect="non-scaling-stroke"  x="-8.125" y="-21.805" rx="0" ry="0" width="16.25" height="43.61" />
</g>
		<g transform="matrix(1 0 0 1 -0.54 85.71)"  >
<path style="stroke: none; stroke-width: 1; stroke-dasharray: none; stroke-linecap: butt; stroke-dashoffset: 0; stroke-linejoin: miter; stroke-miterlimit: 4; fill: rgb(255,164,0); fill-rule: nonzero; opacity: 1;" vector-effect="non-scaling-stroke"  transform=" translate(-195.53, -281.78)" d="M 195.535 271.458 C 192.531 271.458 190.096 273.89300000000003 190.096 276.89500000000004 L 190.096 292.11100000000005 L 200.97 292.11100000000005 L 200.97 276.89500000000004 C 200.971 273.893 198.539 271.458 195.535 271.458 z" stroke-linecap="round" />
</g>
		<g transform="matrix(1 0 0 1 -0.54 103.83)"  >
<rect style="stroke: none; stroke-width: 1; stroke-dasharray: none; stroke-linecap: butt; stroke-dashoffset: 0; stroke-linejoin: miter; stroke-miterlimit: 4; fill: rgb(62,74,87); fill-rule: nonzero; opacity: 1;" vector-effect="non-scaling-stroke"  x="-8.125" y="-2.34" rx="0" ry="0" width="16.25" height="4.68" />
</g>
		<g transform="matrix(1 0 0 1 -0.54 112.83)"  >
<rect style="stroke: none; stroke-width: 1; stroke-dasharray: none; stroke-linecap: butt; stroke-dashoffset: 0; stroke-linejoin: miter; stroke-miterlimit: 4; fill: rgb(62,74,87); fill-rule: nonzero; opacity: 1;" vector-effect="non-scaling-stroke"  x="-8.125" y="-2.34" rx="0" ry="0" width="16.25" height="4.68" />
</g>
</g>
</g>
<g transform="matrix(10.98 -8.83 2.13 2.64 540.04 539.91)"  >
<path style="stroke: rgb(86,83,83); stroke-width: 0; stroke-dasharray: none; stroke-linecap: butt; stroke-dashoffset: 0; stroke-linejoin: miter; stroke-miterlimit: 4; fill: rgb(0,0,0); fill-opacity: 0; fill-rule: nonzero; opacity: 1;" vector-effect="non-scaling-stroke"  transform=" translate(-50, -50)" d="M 94.75 50 C 94.75 56.213 89.514 61.25 83.054 61.25 L 16.946 61.25 C 10.486 61.25 5.25 56.213 5.25 50 L 5.25 50 C 5.25 43.787 10.486 38.75 16.945999999999998 38.75 L 83.053 38.75 C 89.514 38.75 94.75 43.787 94.75 50 L 94.75 50 z" stroke-linecap="round" />
</g>
<g transform="matrix(0.52 0.52 -11.52 11.52 501.21 540)" id="c609d0b6-4a71-4c1f-9f78-9eca9041aca7"  >
<rect style="stroke: rgb(0,0,0); stroke-width: 0; stroke-dasharray: none; stroke-linecap: butt; stroke-dashoffset: 0; stroke-linejoin: miter; stroke-miterlimit: 4; fill: rgb(161,50,50); fill-rule: nonzero; opacity: 1;" vector-effect="non-scaling-stroke"  x="-37.165" y="-37.165" rx="0" ry="0" width="74.33" height="74.33" />
</g>
</svg>