<?xml version="1.0" encoding="UTF-8" standalone="no" ?>
<!DOCTYPE svg PUBLIC "-//W3C//DTD SVG 1.1//EN" "http://www.w3.org/Graphics/SVG/1.1/DTD/svg11.dtd">
<svg xmlns="http://www.w3.org/2000/svg" xmlns:xlink="http://www.w3.org/1999/xlink" version="1.1" width="1080" height="1080" viewBox="0 0 1080 1080" xml:space="preserve">
<desc>Created with Fabric.js 4.2.0</desc>
<defs>
</defs>
<rect x="0" y="0" width="100%" height="100%" fill="transparent"></rect>
<g transform="matrix(0 0 0 0 0 0)" id="700ddccc-b7ad-48ae-bbe2-bc6bf469e4db"  >
</g>
<g transform="matrix(1 0 0 1 540 540)" id="2b0842be-6b66-42a5-bc7e-e1f5af63e59a"  >
<rect style="stroke: none; stroke-width: 1; stroke-dasharray: none; stroke-linecap: butt; stroke-dashoffset: 0; stroke-linejoin: miter; stroke-miterlimit: 4; fill: rgb(255,255,255); fill-rule: nonzero; opacity: 1; visibility: hidden;" vector-effect="non-scaling-stroke"  x="-540" y="-540" rx="0" ry="0" width="1080" height="1080" />
</g>
<g transform="matrix(1.01 0 0 1.01 540 540)"  >
<g style="" vector-effect="non-scaling-stroke"   >
		<g transform="matrix(1 0 0 1 0 0)"  >
<rect style="stroke: none; stroke-width: 1; stroke-dasharray: none; stroke-linecap: butt; stroke-dashoffset: 0; stroke-linejoin: miter; stroke-miterlimit: 4; fill: rgb(185,185,185); fill-rule: nonzero; opacity: 1; visibility: hidden;" vector-effect="non-scaling-stroke"  x="-540" y="-540" rx="0" ry="0" width="1080" height="1080" />
</g>
		<g transform="matrix(2.07 0 0 2.05 -215.34 0)"  >
<path style="stroke: none; stroke-width: 1; stroke-dasharray: none; stroke-linecap: butt; stroke-dashoffset: 0; stroke-linejoin: miter; stroke-miterlimit: 4; fill: rgb(185,185,185); fill-rule: nonzero; opacity: 1;" vector-effect="non-scaling-stroke"  transform=" translate(-151.97, -256)" d="M 151.968 0 C 117.66199999999999 0 89.75299999999999 27.909 89.75299999999999 62.215 L 89.75299999999999 449.78499999999997 C 89.75299999999999 484.09099999999995 117.66199999999998 512 151.968 512 C 186.274 512 214.183 484.091 214.183 449.78499999999997 L 214.183 62.215 C 214.183 27.909 186.274 0 151.968 0 z M 193.785 449.785 C 193.785 472.84200000000004 175.026 491.60200000000003 151.968 491.60200000000003 C 128.911 491.60200000000003 110.15099999999998 472.843 110.15099999999998 449.785 L 110.15099999999998 62.215 C 110.15099999999998 39.158 128.90999999999997 20.398000000000003 151.968 20.398000000000003 C 175.02499999999998 20.398000000000003 193.785 39.157000000000004 193.785 62.215 L 193.785 449.785 z" stroke-linecap="round" />
</g>
		<g transform="matrix(2.07 0 0 2.05 215.35 0)"  >
<path style="stroke: none; stroke-width: 1; stroke-dasharray: none; stroke-linecap: butt; stroke-dashoffset: 0; stroke-linejoin: miter; stroke-miterlimit: 4; fill: rgb(185,185,185); fill-rule: nonzero; opacity: 1;" vector-effect="non-scaling-stroke"  transform=" translate(-360.03, -256)" d="M 360.032 0 C 325.726 0 297.817 27.909 297.817 62.215 L 297.817 449.78499999999997 C 297.817 484.09099999999995 325.726 512 360.03200000000004 512 C 394.3380000000001 512 422.24700000000007 484.091 422.24700000000007 449.78499999999997 L 422.24700000000007 62.215 C 422.247 27.909 394.338 0 360.032 0 z M 401.849 449.785 C 401.849 472.84200000000004 383.09 491.60200000000003 360.032 491.60200000000003 C 336.97499999999997 491.60200000000003 318.215 472.843 318.215 449.785 L 318.215 62.215 C 318.215 39.158 336.974 20.398000000000003 360.032 20.398000000000003 C 383.089 20.398000000000003 401.849 39.157000000000004 401.849 62.215 L 401.849 449.785 z" stroke-linecap="round" />
</g>
		<g transform="matrix(2.07 0 0 2.05 -255.46 -376.76)"  >
<path style="stroke: none; stroke-width: 1; stroke-dasharray: none; stroke-linecap: butt; stroke-dashoffset: 0; stroke-linejoin: miter; stroke-miterlimit: 4; fill: rgb(185,185,185); fill-rule: nonzero; opacity: 1;" vector-effect="non-scaling-stroke"  transform=" translate(-132.59, -72.22)" d="M 132.59 52.016 C 126.95700000000001 52.016 122.391 56.582 122.391 62.214999999999996 L 122.391 82.219 C 122.391 87.85199999999999 126.95700000000001 92.41799999999999 132.59 92.41799999999999 C 138.223 92.41799999999999 142.78900000000002 87.85199999999999 142.78900000000002 82.219 L 142.78900000000002 62.215 C 142.789 56.582 138.223 52.016 132.59 52.016 z" stroke-linecap="round" />
</g>
		<g transform="matrix(2.07 0 0 2.05 -255.46 -32.29)"  >
<path style="stroke: none; stroke-width: 1; stroke-dasharray: none; stroke-linecap: butt; stroke-dashoffset: 0; stroke-linejoin: miter; stroke-miterlimit: 4; fill: rgb(185,185,185); fill-rule: nonzero; opacity: 1;" vector-effect="non-scaling-stroke"  transform=" translate(-132.59, -240.25)" d="M 132.59 109.922 C 126.95700000000001 109.922 122.391 114.488 122.391 120.121 L 122.391 360.373 C 122.391 366.006 126.95700000000001 370.572 132.59 370.572 C 138.223 370.572 142.78900000000002 366.00600000000003 142.78900000000002 360.373 L 142.78900000000002 120.121 C 142.789 114.488 138.223 109.922 132.59 109.922 z" stroke-linecap="round" />
</g>
</g>
</g>
</svg>