<?xml version="1.0" encoding="UTF-8" standalone="no" ?>
<!DOCTYPE svg PUBLIC "-//W3C//DTD SVG 1.1//EN" "http://www.w3.org/Graphics/SVG/1.1/DTD/svg11.dtd">
<svg xmlns="http://www.w3.org/2000/svg" xmlns:xlink="http://www.w3.org/1999/xlink" version="1.1" width="1080" height="1080" viewBox="0 0 1080 1080" xml:space="preserve">
<desc>Created with Fabric.js 4.2.0</desc>
<defs>
</defs>
<rect x="0" y="0" width="100%" height="100%" fill="transparent"></rect>
<g transform="matrix(1 0 0 1 540 540)" id="2b0842be-6b66-42a5-bc7e-e1f5af63e59a"  >
<rect style="stroke: none; stroke-width: 1; stroke-dasharray: none; stroke-linecap: butt; stroke-dashoffset: 0; stroke-linejoin: miter; stroke-miterlimit: 4; fill: rgb(255,255,255); fill-rule: nonzero; opacity: 1; visibility: hidden;" vector-effect="non-scaling-stroke"  x="-540" y="-540" rx="0" ry="0" width="1080" height="1080" />
</g>
<g transform="matrix(Infinity NaN NaN Infinity 0 0)" id="700ddccc-b7ad-48ae-bbe2-bc6bf469e4db"  >
</g>
<g transform="matrix(2.07 0 0 2.07 633.76 540)"  >
<g style="" vector-effect="non-scaling-stroke"   >
		<g transform="matrix(1 0 0 1 0 0)"  >
<path style="stroke: none; stroke-width: 1; stroke-dasharray: none; stroke-linecap: butt; stroke-dashoffset: 0; stroke-linejoin: miter; stroke-miterlimit: 4; fill: rgb(114,115,117); fill-rule: nonzero; opacity: 1;" vector-effect="non-scaling-stroke"  transform=" translate(-256, -256)" d="M 435.078 209.327 L 140.047 9.81 C 122.477 -2.0729999999999986 100.798 -3.2299999999999986 82.06299999999999 6.718 C 63.32599999999999 16.666 52.14099999999999 35.269 52.14099999999999 56.482 L 52.14099999999999 455.51599999999996 C 52.14099999999999 476.729 63.32699999999999 495.332 82.06299999999999 505.28 C 90.52 509.772 99.577 512 108.585 512 C 119.53299999999999 512 130.409 508.708 140.048 502.19 L 435.078 302.674 C 450.59499999999997 292.17999999999995 459.859 274.733 459.859 256.001 C 459.859 237.26899999999995 450.595 219.821 435.078 209.327 z M 423.654 285.78 L 128.624 485.297 C 117.41199999999999 492.879 103.58099999999999 493.619 91.627 487.27000000000004 C 79.67099999999999 480.92300000000006 72.535 469.052 72.535 455.51700000000005 L 72.535 56.484 C 72.535 42.949 79.672 31.079 91.627 24.731 C 97.023 21.866 102.80199999999999 20.444000000000003 108.55 20.444000000000003 C 115.535 20.444000000000003 122.47399999999999 22.543000000000003 128.625 26.703000000000003 L 423.655 226.22 C 433.70399999999995 233.015 439.46599999999995 243.87 439.46599999999995 256 C 439.466 268.13 433.702 278.985 423.654 285.78 z" stroke-linecap="round" />
</g>
		<g transform="matrix(1 0 0 1 93.69 -51.5)"  >
<path style="stroke: none; stroke-width: 1; stroke-dasharray: none; stroke-linecap: butt; stroke-dashoffset: 0; stroke-linejoin: miter; stroke-miterlimit: 4; fill: rgb(114,115,117); fill-rule: nonzero; opacity: 1;" vector-effect="non-scaling-stroke"  transform=" translate(-349.69, -204.5)" d="M 363.689 201.673 L 347.134 190.454 C 342.471 187.29600000000002 336.13300000000004 188.512 332.97200000000004 193.174 C 329.812 197.836 331.03200000000004 204.17600000000002 335.69300000000004 207.335 L 352.24800000000005 218.555 C 354.00200000000007 219.743 355.99000000000007 220.312 357.96000000000004 220.312 C 361.228 220.312 364.43800000000005 218.744 366.41 215.835 C 369.57 211.172 368.35 204.832 363.689 201.673 z" stroke-linecap="round" />
</g>
		<g transform="matrix(1 0 0 1 -45.37 -145.74)"  >
<path style="stroke: none; stroke-width: 1; stroke-dasharray: none; stroke-linecap: butt; stroke-dashoffset: 0; stroke-linejoin: miter; stroke-miterlimit: 4; fill: rgb(114,115,117); fill-rule: nonzero; opacity: 1;" vector-effect="non-scaling-stroke"  transform=" translate(-210.63, -110.26)" d="M 315.764 169.195 L 116.927 34.445 C 112.26400000000001 31.287 105.926 32.504 102.765 37.166 C 99.605 41.827999999999996 100.825 48.166999999999994 105.486 51.327 L 304.323 186.077 C 306.077 187.265 308.065 187.834 310.03499999999997 187.834 C 313.30299999999994 187.834 316.513 186.266 318.48499999999996 183.357 C 321.645 178.694 320.425 172.355 315.764 169.195 z" stroke-linecap="round" />
</g>
</g>
</g>
</svg>