<svg width="19" height="19" viewBox="0 0 19 19" fill="none" xmlns="http://www.w3.org/2000/svg">
<g clip-path="url(#clip0_515_1212)">
<path d="M17.9477 1.59173L0.695829 8.24696C0.27011 8.41114 0.273821 9.0139 0.700764 9.17388L4.90444 10.7428L6.5315 15.9755C6.63563 16.3106 7.04543 16.4345 7.31744 16.2121L9.6606 14.3019C9.90619 14.1018 10.2561 14.0918 10.5127 14.2781L14.739 17.3465C15.03 17.558 15.4422 17.3985 15.5152 17.047L18.6112 2.15479C18.6908 1.77067 18.3134 1.45031 17.9477 1.59173ZM14.6598 5.06216L8.21118 11.0565C7.98452 11.2675 7.83831 11.5498 7.79689 11.8563L7.57721 13.4842C7.54811 13.7016 7.24278 13.7232 7.18281 13.5128L6.33798 10.5443C6.2412 10.2057 6.38221 9.844 6.68172 9.65916L14.4955 4.84667C14.6359 4.76043 14.7804 4.95032 14.6598 5.06216Z" fill="#E1E1E3"/>
<path d="M15.0294 17.8201C14.8479 17.8201 14.6685 17.7632 14.5165 17.6527L10.2904 14.5845C10.1729 14.4992 10.0122 14.5036 9.89968 14.5954L7.55659 16.5055C7.33186 16.6894 7.03116 16.7492 6.7528 16.6655C6.47426 16.5817 6.25639 16.3658 6.17007 16.0878L4.59816 11.0326L0.568415 9.52858C0.224745 9.39977 0.00179156 9.07985 1.03096e-05 8.71343C-0.00173383 8.34735 0.217954 8.02565 0.55962 7.89387L17.8115 1.2386C18.1099 1.12334 18.4468 1.1803 18.6909 1.38723C18.9353 1.59444 19.0467 1.918 18.9818 2.23165L15.8858 17.124C15.8253 17.4153 15.6233 17.6535 15.3455 17.7609C15.2428 17.8006 15.1357 17.8201 15.0294 17.8201ZM10.1023 13.7666C10.3241 13.7666 10.5462 13.8347 10.7351 13.9718L14.9614 17.0402C15.0064 17.0729 15.0503 17.0634 15.0726 17.0548C15.0947 17.0463 15.1335 17.0239 15.1447 16.97L18.2406 2.07776C18.2528 2.01868 18.2213 1.98153 18.2015 1.96468C18.1818 1.94795 18.1403 1.92309 18.0843 1.94472C18.0841 1.94476 18.084 1.94479 18.084 1.94483L0.832114 8.60014C0.76977 8.62418 0.756856 8.67302 0.757041 8.7098C0.757227 8.74687 0.770624 8.79593 0.833561 8.81953L5.03675 10.3883C5.14645 10.4293 5.23102 10.5187 5.26583 10.6305L6.89289 15.8632C6.909 15.915 6.94859 15.9339 6.97078 15.9406C6.99286 15.9472 7.03613 15.9533 7.07784 15.9192L9.42145 14.0086C9.61891 13.8477 9.86041 13.7666 10.1023 13.7666ZM7.3755 14.038C7.11629 14.038 6.89107 13.8697 6.81889 13.6166L5.97399 10.6478C5.83153 10.1492 6.04079 9.61 6.48298 9.33702L14.2971 4.5243C14.5242 4.38481 14.8164 4.43955 14.9772 4.6514C15.1378 4.863 15.1121 5.15887 14.9172 5.3396L8.46889 11.3337C8.30713 11.4843 8.20155 11.688 8.17198 11.907L7.95229 13.5349C7.91548 13.8099 7.6962 14.0163 7.41914 14.0364C7.40452 14.0374 7.38993 14.038 7.3755 14.038ZM12.6047 6.45577L6.88024 9.98142C6.72549 10.0769 6.65209 10.2657 6.70193 10.4403L7.31523 12.5953L7.42177 11.8057C7.47477 11.4136 7.66354 11.0491 7.95329 10.7794L12.6047 6.45577Z" fill="#A0A0A1"/>
<path d="M15.7261 10.3702C15.6995 10.3702 15.6725 10.3674 15.6454 10.3615C15.4411 10.3172 15.3115 10.1156 15.3558 9.91135L15.4133 9.64639C15.4577 9.4421 15.6592 9.31241 15.8635 9.35679C16.0678 9.40113 16.1974 9.60271 16.1531 9.80696L16.0956 10.0719C16.0571 10.2492 15.9003 10.3702 15.7261 10.3702Z" fill="#A0A0A1"/>
<path d="M14.5346 15.8584C14.508 15.8584 14.481 15.8556 14.4539 15.8497C14.2496 15.8053 14.12 15.6037 14.1643 15.3995L15.0349 11.3898C15.0792 11.1855 15.2805 11.0558 15.4851 11.1002C15.6893 11.1445 15.819 11.3461 15.7747 11.5504L14.9041 15.5601C14.8656 15.7373 14.7088 15.8584 14.5346 15.8584Z" fill="#A0A0A1"/>
</g>
<defs>
<clipPath id="clip0_515_1212">
<rect width="19" height="19" fill="white"/>
</clipPath>
</defs>
</svg>
