<svg width="19" height="17" viewBox="0 0 19 17" fill="none" xmlns="http://www.w3.org/2000/svg">
<path d="M15.0294 16.8201C14.8479 16.8201 14.6685 16.7632 14.5165 16.6527L10.2904 13.5845C10.1729 13.4992 10.0122 13.5036 9.89968 13.5954L7.55659 15.5055C7.33186 15.6894 7.03116 15.7492 6.7528 15.6655C6.47426 15.5817 6.25639 15.3658 6.17007 15.0878L4.59816 10.0326L0.568415 8.52858C0.224745 8.39977 0.00179156 8.07985 1.03096e-05 7.71343C-0.00173383 7.34735 0.217954 7.02565 0.55962 6.89387L17.8115 0.238603C18.1099 0.123341 18.4468 0.180304 18.6909 0.387226C18.9353 0.594445 19.0467 0.918001 18.9818 1.23165L15.8858 16.124C15.8253 16.4153 15.6233 16.6535 15.3455 16.7609C15.2428 16.8006 15.1357 16.8201 15.0294 16.8201ZM10.1023 12.7666C10.3241 12.7666 10.5462 12.8347 10.7351 12.9718L14.9614 16.0402C15.0064 16.0729 15.0503 16.0634 15.0726 16.0548C15.0947 16.0463 15.1335 16.0239 15.1447 15.97L18.2406 1.07776C18.2528 1.01868 18.2213 0.981533 18.2015 0.964685C18.1818 0.947949 18.1403 0.923085 18.0843 0.94472C18.0841 0.944757 18.084 0.944794 18.084 0.944831L0.832114 7.60014C0.76977 7.62418 0.756856 7.67302 0.757041 7.7098C0.757227 7.74687 0.770624 7.79593 0.833561 7.81953L5.03675 9.38833C5.14645 9.4293 5.23102 9.51873 5.26583 9.63054L6.89289 14.8632C6.909 14.915 6.94859 14.9339 6.97078 14.9406C6.99286 14.9472 7.03613 14.9533 7.07784 14.9192L9.42145 13.0086C9.61891 12.8477 9.86041 12.7666 10.1023 12.7666ZM7.3755 13.038C7.11629 13.038 6.89107 12.8697 6.81889 12.6166L5.97399 9.64783C5.83153 9.14916 6.04079 8.61 6.48298 8.33702L14.2971 3.5243C14.5242 3.38481 14.8164 3.43955 14.9772 3.6514C15.1378 3.863 15.1121 4.15887 14.9172 4.3396L8.46889 10.3337C8.30713 10.4843 8.20155 10.688 8.17198 10.907L7.95229 12.5349C7.91548 12.8099 7.6962 13.0163 7.41914 13.0364C7.40452 13.0374 7.38993 13.038 7.3755 13.038ZM12.6047 5.45577L6.88024 8.98142C6.72549 9.07691 6.65209 9.26572 6.70193 9.44028L7.31523 11.5953L7.42177 10.8057C7.47477 10.4136 7.66354 10.0491 7.95329 9.77942L12.6047 5.45577Z" fill="#A0A0A1"/>
</svg>
