<svg width="13" height="9" viewBox="0 0 13 9" fill="none" xmlns="http://www.w3.org/2000/svg">
<path d="M7.09765 8.05273C7.26367 8.01953 7.5625 7.95313 7.5625 7.55469C7.5625 7.55469 7.52929 6.55859 7.99414 6.42578C8.45898 6.29297 9.05664 7.38867 9.6875 7.82031C10.1523 8.11914 10.5176 8.08594 10.5176 8.08594L12.2109 8.05274C12.2109 8.05274 13.0742 7.98633 12.6758 7.28906C12.6426 7.22266 12.377 6.79102 11.3809 5.89453C10.3516 4.89844 10.5176 5.06446 11.7461 3.3711C12.5098 2.3418 12.8418 1.71094 12.7422 1.47852C12.6094 1.2461 12.0781 1.2793 12.0781 1.2793L10.1855 1.2793C9.98633 1.2793 9.88672 1.3125 9.78711 1.47852C9.78711 1.47852 9.48828 2.3086 9.08984 2.97266C8.25976 4.40039 7.92773 4.4668 7.76172 4.36719C7.46289 4.20117 7.52929 3.57031 7.52929 3.13867C7.52929 1.64453 7.76172 1.11328 7.09765 0.980472C6.66601 0.914065 5.13867 0.847659 4.67383 1.08008C4.4414 1.21289 4.30859 1.44531 4.4082 1.47852C4.50781 1.47852 4.80664 1.51172 4.97265 1.71094C5.23828 2.14258 5.27148 4.20117 4.90625 4.40039C4.4082 4.76563 3.14648 2.3418 2.84765 1.54492C2.78125 1.34571 2.68164 1.3125 2.44922 1.2461L0.623044 1.2461C0.423825 1.2461 0.124997 1.2793 0.257809 1.67774C1.15429 3.53711 3.01367 8.08594 6.36718 8.05273L7.09765 8.05273Z" fill="white"/>
</svg>
