<svg width="17" height="17" viewBox="0 0 17 17" fill="none" xmlns="http://www.w3.org/2000/svg">
<g clip-path="url(#clip0_515_1241)">
<path d="M16.995 2.9715e-06L0.00498047 8.70813e-10C0.00222983 3.89876e-10 -3.89876e-10 0.00222983 -8.70813e-10 0.00498047L-2.9715e-06 16.995C-2.97198e-06 16.9978 0.00222686 17 0.0049775 17L16.995 17C16.9978 17 17 16.9978 17 16.995L17 0.00498344C17 0.0022328 16.9978 2.97199e-06 16.995 2.9715e-06Z" fill="#58616C"/>
<path d="M9.09765 12.0527C9.26367 12.0195 9.5625 11.9531 9.5625 11.5547C9.5625 11.5547 9.52929 10.5586 9.99414 10.4258C10.459 10.293 11.0566 11.3887 11.6875 11.8203C12.1523 12.1191 12.5176 12.0859 12.5176 12.0859L14.2109 12.0527C14.2109 12.0527 15.0742 11.9863 14.6758 11.2891C14.6426 11.2227 14.377 10.791 13.3809 9.89453C12.3516 8.89844 12.5176 9.06446 13.7461 7.3711C14.5098 6.3418 14.8418 5.71094 14.7422 5.47852C14.6094 5.2461 14.0781 5.2793 14.0781 5.2793L12.1855 5.2793C11.9863 5.2793 11.8867 5.3125 11.7871 5.47852C11.7871 5.47852 11.4883 6.3086 11.0898 6.97266C10.2598 8.40039 9.92773 8.4668 9.76172 8.36719C9.46289 8.20117 9.52929 7.57031 9.52929 7.13867C9.52929 5.64453 9.76172 5.11328 9.09765 4.98047C8.66601 4.91407 7.13867 4.84766 6.67383 5.08008C6.4414 5.21289 6.30859 5.44531 6.4082 5.47852C6.50781 5.47852 6.80664 5.51172 6.97265 5.71094C7.23828 6.14258 7.27148 8.20117 6.90625 8.40039C6.4082 8.76563 5.14648 6.3418 4.84765 5.54492C4.78125 5.34571 4.68164 5.3125 4.44922 5.2461L2.62304 5.2461C2.42383 5.2461 2.125 5.2793 2.25781 5.67774C3.15429 7.53711 5.01367 12.0859 8.36718 12.0527L9.09765 12.0527Z" fill="white"/>
</g>
<defs>
<clipPath id="clip0_515_1241">
<rect width="17" height="17" rx="4" fill="white"/>
</clipPath>
</defs>
</svg>
